<?xml version="1.0" encoding="utf-8"?>
<!-- Generator: Adobe Illustrator 24.3.0, SVG Export Plug-In . SVG Version: 6.00 Build 0)  -->
<svg version="1.0" id="圖層_1" xmlns="http://www.w3.org/2000/svg" xmlns:xlink="http://www.w3.org/1999/xlink" x="0px" y="0px"
	 viewBox="0 0 1618.8 740.1" style="enable-background:new 0 0 1618.8 740.1;" xml:space="preserve">
<style type="text/css">
	.st0{fill:#FFFFFF;}
	.st1{fill:#BDA16C;}
</style>
<g>
	<g>
		<path class="st0" d="M1061.2,640.3l-13.9-33.2H1020l16.8,40C1048.8,643.4,1057,641.3,1061.2,640.3L1061.2,640.3z M1031,672
			c-5.1,2.9-17,10.2-27.1,20.3l11.1,23.7c12,0.1,23.9,0.9,35.5,2.4L1031,672z M933.1,726.7c1.9-0.6,3.8-1.1,5.8-1.6
			c0.1,0,0.2,0,0.2-0.1c0.9-0.3,1.9-0.5,2.8-0.7c0,0,0.1,0,0.1,0c2-0.5,4.1-1,6.1-1.5c4.8-1.1,9.8-2,14.8-2.9
			c20.5-26.7,44-44.1,79.2-59.7l25.6,61.1c10.8,2.1,21.1,4.8,30.8,8.2l-33.1-78.9c9.9-3.7,20.7-7.5,32.4-11.3l2.6-4
			c-24.9,5.1-51.4,11.9-76.2,20.8l-20.6-49H978l-53.1,121.1c-0.2,0.5-0.4,0.9-0.6,1.4c0.9-0.3,1.7-0.6,2.6-0.9
			c0.3-0.1,0.5-0.2,0.8-0.3c0.7-0.2,1.3-0.4,2-0.6c0.3-0.1,0.5-0.2,0.8-0.2c0.8-0.2,1.5-0.5,2.3-0.7
			C932.9,726.8,933,726.7,933.1,726.7L933.1,726.7z M983.3,648.4L993,669c-9.4,4.5-18.2,9.3-26.3,14.6L983.3,648.4z"/>
		<path class="st0" d="M1150.6,715.8v-29.6h-10.9V678h30.3v8.2h-10.9v29.6H1150.6z M1177.6,716.4c-3,0-5.5-0.8-7.2-2.4
			c-1.8-1.6-2.6-3.8-2.6-6.5c0-1.8,0.5-3.3,1.4-4.7c1-1.4,2.3-2.4,3.9-3.1c1.7-0.8,3.7-1.1,5.9-1.1c1.1,0,2.2,0.1,3.3,0.3
			c1.1,0.2,2,0.4,2.7,0.7v-1.6c0-1.2-0.4-2.1-1.2-2.7c-0.8-0.6-1.9-1-3.4-1c-1.4,0-2.8,0.2-4.2,0.7c-1.4,0.5-2.9,1.2-4.5,2.2
			l-2.5-6.2c1.7-1.1,3.6-2,5.6-2.6c2.1-0.6,4.2-0.9,6.3-0.9c4,0,6.9,0.9,8.9,2.7c2,1.8,3,4.5,3,8.1v17.4h-8v-2
			c-0.8,0.9-1.9,1.5-3.1,2C1180.5,716.2,1179.1,716.4,1177.6,716.4z M1179.7,709.7c1,0,2-0.2,2.8-0.5c0.9-0.3,1.7-0.8,2.4-1.4v-2.3
			c-0.7-0.3-1.4-0.4-2.2-0.6c-0.8-0.1-1.6-0.2-2.5-0.2c-1.5,0-2.6,0.2-3.4,0.7c-0.8,0.5-1.2,1.1-1.2,1.9c0,0.7,0.3,1.3,1.1,1.6
			C1177.4,709.5,1178.4,709.7,1179.7,709.7z M1197.9,715.8v-27.6h8.1v27.6H1197.9z M1201.9,685.7c-1.3,0-2.3-0.5-3.3-1.4
			c-0.9-0.9-1.4-2-1.4-3.3c0-1.2,0.5-2.3,1.3-3.2c0.9-0.9,2-1.3,3.3-1.3c1.3,0,2.4,0.4,3.3,1.3c0.9,0.9,1.3,1.9,1.3,3.2
			c0,1.3-0.5,2.4-1.4,3.3C1204.3,685.3,1203.2,685.7,1201.9,685.7z M1217.3,715.8l-8-27.6h8l2.8,10.6c0.1,0.5,0.3,1.1,0.4,2
			c0.2,0.8,0.3,1.6,0.4,2.2c0.1-0.6,0.3-1.4,0.5-2.2c0.2-0.8,0.4-1.5,0.5-2l2.7-10.6h7.2l2.6,10.6c0.1,0.5,0.3,1.2,0.5,2
			c0.2,0.8,0.4,1.6,0.5,2.2c0.1-0.7,0.2-1.4,0.4-2.2c0.2-0.8,0.3-1.5,0.4-2l2.9-10.6h8l-8.1,27.6h-7.1l-2.7-12.1
			c-0.1-0.5-0.3-1.2-0.5-2.1c-0.2-1-0.4-1.8-0.5-2.5c-0.1,0.7-0.3,1.5-0.5,2.5c-0.2,0.9-0.4,1.6-0.5,2.1l-2.7,12.1H1217.3z
			 M1258,716.4c-3,0-5.5-0.8-7.2-2.4c-1.8-1.6-2.6-3.8-2.6-6.5c0-1.8,0.5-3.3,1.4-4.7c1-1.4,2.3-2.4,3.9-3.1
			c1.7-0.8,3.7-1.1,5.9-1.1c1.1,0,2.2,0.1,3.3,0.3c1.1,0.2,2,0.4,2.7,0.7v-1.6c0-1.2-0.4-2.1-1.2-2.7c-0.8-0.6-1.9-1-3.4-1
			c-1.4,0-2.8,0.2-4.2,0.7c-1.4,0.5-2.9,1.2-4.5,2.2l-2.5-6.2c1.7-1.1,3.6-2,5.6-2.6c2.1-0.6,4.2-0.9,6.3-0.9c4,0,6.9,0.9,8.9,2.7
			c2,1.8,3,4.5,3,8.1v17.4h-8v-2c-0.8,0.9-1.9,1.5-3.1,2C1260.9,716.2,1259.5,716.4,1258,716.4z M1260.1,709.7c1,0,2-0.2,2.8-0.5
			c0.9-0.3,1.7-0.8,2.4-1.4v-2.3c-0.7-0.3-1.4-0.4-2.2-0.6c-0.8-0.1-1.6-0.2-2.5-0.2c-1.5,0-2.6,0.2-3.4,0.7
			c-0.8,0.5-1.2,1.1-1.2,1.9c0,0.7,0.4,1.3,1.1,1.6C1257.8,709.5,1258.8,709.7,1260.1,709.7z M1278.3,715.8v-27.6h8.1v2.5
			c0.9-1.1,2-1.9,3.2-2.4c1.3-0.5,2.7-0.8,4.3-0.8c2.9,0,5.2,0.9,6.9,2.7c1.7,1.8,2.6,4.3,2.6,7.4v18.1h-8.1v-14.1
			c0-2.3-0.3-3.9-1-4.9c-0.6-1-1.7-1.4-3.3-1.4c-1.6,0-2.8,0.5-3.6,1.5c-0.7,1-1.1,2.6-1.1,4.7v14.2H1278.3z M1314.6,715.8
			l15.1-37.8h8.2l15.1,37.8h-9.3l-2.8-7.2h-14.1l-2.8,7.2H1314.6z M1329.5,700.7h8.3l-3.1-7.6c-0.1-0.3-0.2-0.5-0.4-0.8
			c-0.1-0.3-0.3-0.6-0.4-1c-0.1-0.3-0.2-0.7-0.3-0.9c-0.1,0.3-0.2,0.6-0.3,0.9c-0.1,0.3-0.3,0.6-0.4,1c-0.1,0.3-0.2,0.6-0.3,0.8
			L1329.5,700.7z M1354.9,715.8V678h8.5v37.8H1354.9z M1374.6,715.8l15.1-37.8h8.2l15.1,37.8h-9.3l-2.8-7.2h-14.1l-2.8,7.2H1374.6z
			 M1389.6,700.7h8.3l-3.1-7.6c-0.1-0.3-0.2-0.5-0.4-0.8c-0.1-0.3-0.3-0.6-0.4-1c-0.1-0.3-0.2-0.7-0.3-0.9c-0.1,0.3-0.2,0.6-0.3,0.9
			c-0.1,0.3-0.3,0.6-0.4,1c-0.1,0.3-0.2,0.6-0.3,0.8L1389.6,700.7z M1426.3,716.4c-2.7,0-5-0.6-6.9-1.8c-1.9-1.2-3.4-2.8-4.5-5
			c-1.1-2.2-1.6-4.7-1.6-7.7c0-2.9,0.5-5.5,1.6-7.6c1.1-2.2,2.6-3.9,4.5-5c2-1.2,4.3-1.8,6.9-1.8c3.2,0,5.8,0.7,7.8,2.2
			c2.1,1.5,3.6,3.7,4.5,6.6l-7.7,2.5c-0.4-1.1-1-2-1.8-2.6c-0.8-0.6-1.7-0.9-2.7-0.9c-1.4,0-2.6,0.6-3.5,1.9
			c-0.9,1.3-1.4,2.9-1.4,4.8s0.5,3.5,1.4,4.8c0.9,1.2,2.1,1.9,3.5,1.9c1.1,0,2-0.3,2.8-1c0.8-0.7,1.4-1.7,1.8-3l7.7,2.2
			c-0.9,3.2-2.4,5.6-4.5,7.2C1432.1,715.6,1429.5,716.4,1426.3,716.4z M1450.8,716.4c-3,0-5.5-0.8-7.2-2.4c-1.8-1.6-2.6-3.8-2.6-6.5
			c0-1.8,0.5-3.3,1.4-4.7c1-1.4,2.3-2.4,3.9-3.1c1.7-0.8,3.7-1.1,5.9-1.1c1.1,0,2.2,0.1,3.3,0.3c1.1,0.2,2,0.4,2.7,0.7v-1.6
			c0-1.2-0.4-2.1-1.2-2.7c-0.8-0.6-1.9-1-3.4-1c-1.4,0-2.8,0.2-4.2,0.7c-1.4,0.5-2.9,1.2-4.5,2.2l-2.5-6.2c1.7-1.1,3.6-2,5.6-2.6
			c2.1-0.6,4.2-0.9,6.3-0.9c4,0,6.9,0.9,8.9,2.7c2,1.8,3,4.5,3,8.1v17.4h-8v-2c-0.8,0.9-1.9,1.5-3.1,2
			C1453.8,716.2,1452.4,716.4,1450.8,716.4z M1452.9,709.7c1,0,2-0.2,2.8-0.5c0.9-0.3,1.7-0.8,2.4-1.4v-2.3
			c-0.7-0.3-1.4-0.4-2.2-0.6c-0.8-0.1-1.6-0.2-2.5-0.2c-1.5,0-2.6,0.2-3.4,0.7c-0.8,0.5-1.2,1.1-1.2,1.9c0,0.7,0.4,1.3,1.1,1.6
			C1450.6,709.5,1451.6,709.7,1452.9,709.7z M1481,716.4c-3.6,0-6.4-1.3-8.4-3.8c-2-2.5-3-6.1-3-10.7c0-2.8,0.5-5.3,1.5-7.5
			c1-2.2,2.3-3.9,4-5.1c1.7-1.2,3.7-1.8,6-1.8c2.3,0,4.1,0.9,5.4,2.8v-9.9l8.1-3.6v39h-8.1v-2.3
			C1485.5,715.4,1483.6,716.4,1481,716.4z M1482.4,708.6c1.1,0,1.9-0.1,2.5-0.4c0.6-0.3,1.1-0.7,1.6-1.2v-9.9c-0.5-0.5-1-1-1.8-1.3
			c-0.7-0.3-1.5-0.5-2.3-0.5c-1.5,0-2.6,0.6-3.4,1.7c-0.8,1.1-1.2,2.7-1.2,4.9c0,1.5,0.2,2.7,0.5,3.7c0.3,1,0.9,1.7,1.5,2.2
			C1480.5,708.3,1481.3,708.6,1482.4,708.6z M1511.8,716.4c-2.7,0-5.1-0.6-7.1-1.7c-2-1.2-3.5-2.8-4.5-5c-1-2.2-1.6-4.8-1.6-7.8
			c0-2.9,0.5-5.5,1.6-7.6c1.1-2.2,2.6-3.8,4.6-5c2-1.2,4.3-1.8,7-1.8c2.3,0,4.4,0.5,6.3,1.4c1.9,0.9,3.4,2.4,4.5,4.3
			c1.1,1.9,1.7,4.4,1.7,7.3c0,0.5,0,1.1,0,1.9c0,0.7-0.1,1.5-0.2,2.2h-17.5c0,1,0.2,1.9,0.6,2.6c0.4,0.7,1,1.3,1.8,1.7
			c0.8,0.4,1.7,0.6,2.8,0.6c1.4,0,2.6-0.2,3.5-0.7c1-0.5,1.9-1.2,2.8-2.2l4.6,4.6c-1.3,1.6-2.8,2.8-4.6,3.8
			C1516.3,716,1514.2,716.4,1511.8,716.4z M1506.6,698.6h9.9c-0.1-1-0.4-1.7-0.8-2.4c-0.4-0.6-1-1.1-1.6-1.4
			c-0.7-0.3-1.5-0.5-2.5-0.5c-1.3,0-2.4,0.4-3.3,1.1C1507.4,696.3,1506.8,697.3,1506.6,698.6z M1528,715.8v-27.6h8.1v2.5
			c1-1.1,1.9-1.9,2.9-2.4c1-0.5,2.2-0.8,3.5-0.8c1.7,0,3,0.3,4.1,0.9c1.1,0.6,1.9,1.6,2.5,2.9c1-1.2,2.2-2.2,3.6-2.8
			c1.5-0.7,3.2-1,5-1c3.7,0,6.3,0.9,8,2.7c1.7,1.8,2.6,4.7,2.6,8.6v17h-8.1v-14c0-2.3-0.3-4-0.9-4.9s-1.6-1.5-3.1-1.5
			c-1,0-1.8,0.2-2.4,0.6c-0.6,0.4-1,1-1.3,1.9c-0.3,0.9-0.4,2.1-0.4,3.6v14.3h-8.1v-14c0-2.3-0.3-4-0.9-4.9c-0.6-1-1.6-1.5-3.1-1.5
			c-1.5,0-2.6,0.5-3.2,1.4c-0.6,0.9-0.9,2.5-0.9,4.8v14.3H1528z M1576.6,726.2l4.2-10.8l-10.4-27.3h8.4l5.5,14.4
			c0.1,0.3,0.3,0.7,0.5,1.2c0.2,0.5,0.3,0.9,0.4,1.4c0.1-0.4,0.2-0.9,0.4-1.4c0.2-0.5,0.3-0.9,0.5-1.2l5.4-14.4h8.4l-14.7,38.1
			H1576.6z"/>
		<path class="st0" d="M1189.9,626.7l-6.8,5c-0.7-1.2-1.6-2.5-2.6-3.9c-28.3,1.2-32.6,1.3-36,2.4c-0.4-1.6-1.7-5.5-2.7-7.7
			c1.7-0.4,2.9-1.4,4.7-3.1c1.9-1.7,7.7-8.3,11.2-14.8l8.1,3.5c-3.2,4.6-7,9.1-11,13l19.7-0.5c-1.9-2.2-3.8-4.2-5.5-6l6.3-4.2
			C1180.2,615.1,1186.9,622,1189.9,626.7z M1175.7,641.1H1154v6.9h21.7V641.1z M1145.7,658.5v-25.1h38.7v25.1h-8.7v-2.7H1154v2.7
			H1145.7z M1234.7,615.4l0.2-0.1h-13v-4h4.9c-0.3-1.2-0.9-2.6-1.4-3.7l5.1-1c0.7,1.3,1.4,3.2,1.8,4.3l-1.9,0.4h4.8v3.9
			c0.5-0.3,1-0.8,1.5-1.4c0.6-0.8,2.5-4.2,3.3-7.3l4.2,1.5c-0.8,1.9-2.1,4-3.4,5.9l1.9-0.1c0.4-0.8,0.9-1.6,1.2-2.4l3.9,1.8
			c-1.4,2.5-3.4,5.3-5.5,7.7l2.3-0.2c-0.2-0.4-0.3-0.8-0.5-1.2l3-1.2c0.9,1.9,2,4.4,2.3,6l-3.2,1.3c-0.1-0.4-0.2-1-0.4-1.6
			c-6.6,0.9-8.1,1.3-9.1,1.7c-0.2-0.6-0.9-2.2-1.5-3c0.9-0.2,1.7-0.8,2.7-2c0.5-0.5,1.4-1.6,2.4-3.1c-2.4,0.2-3.4,0.4-4,0.7
			C1236,617.7,1235.3,616.3,1234.7,615.4z M1244.1,633.7l-3.4,1.1c0-1.7-0.4-4.5-0.9-6.7l3.3-0.9
			C1243.6,629.3,1244,632,1244.1,633.7z M1236,626.8l3.6,0.9c-0.4,2.7-1.2,5.5-2.2,7.3c-0.7-0.7-2.2-1.8-3.1-2.3
			C1235.3,631.1,1235.7,628.9,1236,626.8z M1234.2,620.9v3.4h-10.8v-3.4H1234.2z M1228,628.9v1.7h1.5v-1.7H1228z M1223.5,633.9v-8.4
			h10.8v8.4H1223.5z M1234.2,616.5v3.4h-10.8v-3.4H1234.2z M1222.9,624.3l-3.3,1.3c-0.1-0.5-0.2-1.1-0.4-1.7
			c-6.7,0.9-8.1,1.3-9.2,1.7c-0.2-0.6-0.9-2.2-1.4-3c0.9-0.2,1.7-0.9,2.7-2c0.5-0.5,1.4-1.6,2.4-3.1c-2.4,0.2-3.4,0.4-4,0.7
			c-0.2-0.6-0.9-2.1-1.5-2.9c0.7-0.1,1.3-0.7,1.9-1.6c0.6-0.8,2.5-4.2,3.3-7.3l4.2,1.5c-0.8,1.9-2.1,4-3.4,5.9l1.9-0.1
			c0.4-0.8,0.9-1.6,1.2-2.4l3.9,1.8c-1.4,2.5-3.3,5.3-5.5,7.7l2.2-0.2c-0.2-0.4-0.3-0.8-0.5-1.2l3.1-1.1
			C1221.5,620.2,1222.5,622.7,1222.9,624.3z M1222.2,631.5l-3.1,1.4c-0.1-1.6-0.7-3.9-1.3-5.8l2.9-1.2
			C1221.4,627.7,1222,630,1222.2,631.5z M1217.7,633l-3.4,1.1c0-1.6-0.4-4.2-0.9-6.2l3.3-0.9C1217.2,628.9,1217.6,631.4,1217.7,633z
			 M1209.4,627l3.6,0.9c-0.4,2.7-1.2,5.5-2.2,7.3c-0.7-0.7-2.2-1.8-3.1-2.3C1208.7,631.3,1209.2,629.1,1209.4,627z M1210.3,612
			l-4.8,6c-1.6-1.8-5.2-4.4-7.9-6l4.5-5.4C1204.8,608,1208.5,610.3,1210.3,612z M1209.1,626.1l-4.7,6.2c-1.6-1.7-5.3-4.1-8-5.6
			l4.4-5.6C1203.6,622.3,1207.3,624.5,1209.1,626.1z M1205,657.9l-7.2-4c2.1-4.4,4.8-11.3,7-18l6.4,4.1
			C1209.3,646.1,1207.2,652.3,1205,657.9z M1220.4,646.1h27.2c0,0-0.1,1.8-0.4,2.7c-0.7,4.3-1.7,6.8-3.2,8c-1.6,1.2-3.3,1.6-5.7,1.7
			c-1.9,0.1-5.3,0.1-8.8-0.1c-0.1-1.7-0.9-4.2-2.1-5.8c3.2,0.3,6.8,0.3,8.3,0.3c1.1,0,1.8-0.1,2.4-0.4c0.4-0.3,0.8-0.8,1.1-1.8
			h-27.5c0.9-2.9,1.9-6.9,2.5-10.3h23.1v-1.1h-24.5v-4.3h32v9.8h-24.1L1220.4,646.1z M1244.2,627.2l3-1.2c0.8,2.1,1.6,4.9,1.7,6.6
			l-3.1,1.4C1245.7,632.3,1245,629.4,1244.2,627.2z M1275.9,605.9h9.3c-0.1,2.5-0.2,5.7-0.4,9.3c0.8,7.9,4.3,27.4,23.5,36
			c-2.5,1.9-4.8,4.7-5.9,7c-11.6-5.6-17.8-15.3-21.2-24.4c-3.2,9.1-9,18.2-19.6,24.8c-1.4-2.2-4-4.8-6.8-6.6
			C1277.1,639.5,1275.7,615.9,1275.9,605.9z M1344,646.8h21.3v8.1h-51.1v-8.1h20.6v-27h-17.4v-8.4h44.7v8.4h-18V646.8z
			 M1378.7,618.7h3.7v-0.8V616h-1.7C1380,617,1379.3,617.9,1378.7,618.7z M1408.5,640.9h-21.3v1.9h21.3V640.9z M1387.2,650.4h21.3
			v-2h-21.3V650.4z M1398.4,629.2l-5.8,5c-1.6-1.3-4.1-3.3-6.4-4.9c-1.4,1.9-3.4,3.7-6,5.4h36.6v23.9h-8.3v-1.7h-21.3v1.7h-7.9
			v-23.3c-0.8,0.5-1.8,1-2.8,1.4c-1.1-1.6-3.3-4-5.1-5.3c4.8-1.8,7.5-4.1,9-6.4h-8.3v-6.2h3.8c-1.5-0.9-3.4-2-4.5-2.5
			c2.9-2.5,5-6.6,6-10.7l7.1,1.4c-0.3,1-0.6,2-0.9,2.9h13v6.2h-6.6v2.1v0.7h7.9v6.2h-7.2C1393.2,626.2,1397.2,628.4,1398.4,629.2z
			 M1413.6,624.8v-8h-6.7v8H1413.6z M1399.4,609.7h22.2v22.2h-22.2V609.7z M1463.5,625.7v-1.8h-7.5v-4.5h7.5v-1.3h-6.1v-4.5h6.1
			v-1.2h-7.1v-4.5h7.1v-1.9h7.5v1.9h8.1v4.5h-8.1v1.2h7.1v4.5h-7.1v1.3h9.2v4.5h-9.2v1.8H1463.5z M1439.8,625.7V624h-8.5v-4.5h8.5
			v-1.3h-6.3v-4.5h6.3v-1.2h-7.7v-4.5h7.7v-1.9h7.4v1.9h7.1v4.5h-7.1v1.2h6.5v4.5h-6.5v1.3h7.6v4.5h-7.6v1.7H1439.8z M1468.5,638.2
			v-1.3h-37.8v-4.5h37.8v-1.2h-33v-4.9h40.9v6h5.2v4.5h-5.2v6.2h-16.3c1.4,1.1,2.7,2.1,3.5,3l-5.5,4.7c-1.3-1.6-4.1-4-6.3-5.6
			l2.6-2.1h-19.2v-4.9H1468.5z M1436.5,657.6l-6.9-4.3c2.8-2.3,5.3-5.9,6.8-9.3l6.9,3C1441.6,650.8,1439.3,654.9,1436.5,657.6z
			 M1482.4,653.6l-7.1,3.9c-0.9-1.8-2.6-4.1-4.5-6.3c-1.1,5.4-3.3,6.8-8.8,6.8h-8.5c-8.2,0-10.1-2.1-10.1-8.4v-5.3h8v5.2
			c0,1.6,0.4,1.7,3,1.7h6.8c2,0,2.4-0.5,2.7-3.8c1.2,0.9,3.5,1.8,5.5,2.3c-0.8-0.9-1.6-1.8-2.4-2.5l6.6-3.5
			C1476.8,646.5,1480.7,650.6,1482.4,653.6z M1520.8,612.4l-3.8,3.3c-0.6-0.6-1.5-1.3-2.4-2c-1.3,0.9-2.7,1.8-4,2.4
			c-0.9-0.9-2.9-2.7-4.1-3.5c1.3-0.6,2.6-1.2,3.8-1.9c-0.9-0.5-1.7-1-2.5-1.4l3.5-2.9c0.9,0.4,1.9,1,2.9,1.6
			c0.7-0.6,1.2-1.2,1.7-1.8l5,1.5c-0.7,1-1.6,2-2.5,2.9C1519.3,611.2,1520.1,611.9,1520.8,612.4z M1500.9,624.6l0.1,1.3h8.4
			c-0.7-0.7-1.7-1.8-2.5-2.5v1.3H1500.9z M1497.1,631.6v6.4h-7.6v-12.1h4l-0.9-16.6c3.4-0.6,8.4-2.2,11.5-3.3l3.2,4.5
			c-2.1,0.8-4.6,1.5-7.1,2.1l0.1,1.1h6.6v4.8h-6.3l0.1,1.3h6.3v2.2c1.1-0.4,2-1,3-1.6c-0.9-0.6-1.8-1.1-2.7-1.6l3.7-3
			c0.9,0.5,1.9,1.1,3,1.7c0.8-0.7,1.4-1.4,1.9-2.1l5.1,1.6c-0.8,1.1-1.7,2.2-2.8,3.2c1.2,0.8,2.2,1.6,3,2.3l-3.9,3.3
			c-0.7-0.7-1.7-1.6-2.9-2.4c-1.3,0.9-2.5,1.7-3.8,2.4h16.5l0.2-1.3h-5.7v-4.8h6.2l0.1-1.3h-5.9v-4.8h6.3l0.1-1.3h-6.7v-4.9h14.6
			c-0.3,6-0.7,13-1.2,18.3h4V638h-8v-6.4H1497.1z M1539.3,642.5v6.3h-20.6v2.5c0,3.4-0.7,5.2-3.3,6.2c-2.6,0.9-5.8,1-9.8,1
			c-0.4-2.1-1.5-4.9-2.5-6.8c2.3,0.1,5.7,0.1,6.5,0.1c0.9,0,1.2-0.2,1.2-0.8v-2.3h-22.1v-6.3h22.1v-1.1c1.5-0.7,3.2-1.7,4.7-2.7
			h-15.7v-5.5h23.1l1.7-0.4l4.5,4.2c-2.6,1.8-5.7,3.8-8.8,5.5H1539.3z M1587.2,620.7h-12.5l5.5,2.6c-1.8,2.6-3.9,5.3-6.1,7.6l3-0.7
			c1.1,3,2.4,5.8,4.2,8.4c1.6-2.5,2.9-5.3,3.8-8.3l5.5,1.5c-1.9-2.7-4.7-5.7-7-7.9L1587.2,620.7z M1598.7,629.9l-5.9,5.2
			c-0.2-0.3-0.4-0.7-0.6-1.1c-1.3,3.9-3.1,7.4-5.3,10.5c3.4,2.8,7.6,5,12.7,6.3c-1.8,1.7-4.2,5-5.4,7.3c-5.2-1.7-9.3-4.2-12.7-7.4
			c-3.7,3.3-8,5.8-13.1,7.8c-1-1.8-3.4-5-5-6.4c5.1-1.8,9.4-4.3,12.9-7.5c-2.1-3.1-3.8-6.6-5.3-10.5c-0.6,0.5-1.1,0.9-1.6,1.4
			c-1.2-1.4-3.5-3.5-5.2-4.9c1.5,2.4,3,4.8,3.5,5.7l-4.5,5.9c-0.6-1.8-1.6-4.2-2.6-6.5v22.7h-7.3v-19.8c-1.3,4.3-2.8,8.3-4.4,11
			c-0.7-2.3-2.4-6-3.6-8.1c3-4.2,5.4-11.5,6.8-17.8h-5v-7.4h6.3v-10.5h7.3v10.5h5.2v7.4h-5.2v1.4c0.7,0.9,2,2.9,3.4,5.2
			c3.1-2.4,6.5-6.3,8.8-9.6h-5.6v-7.4h11.7c-0.8-1.8-1.9-4-3-5.7l7.3-2.6c1.6,2.1,3.3,4.9,4,6.9l-3.3,1.3h14.4v7.4h-7.4
			C1593.8,623.7,1597.1,627.2,1598.7,629.9z"/>
	</g>
	<g>
		<path class="st0" d="M1019.6,109.2l19.9,4.8c-3,18.7-6.1,34.4-9.3,47.2l-19.9-6.2C1014.3,139.7,1017.4,124.4,1019.6,109.2z
			 M1042.8,0.1l19.9,8.5c-6.7,13.7-13.2,25.5-19.3,35.6c2.2,1.9,4.5,3.8,6.8,5.6c5.3-9.2,10-18.2,14.1-27.1l19.5,8.5
			c-6.7,12.5-13.3,24-19.7,34.4l15.7-5.2c5.4,12.3,9.6,25.7,12.6,40.2l-21.1,7c-0.4-3.1-0.9-6.3-1.5-9.5c-2.5,0.5-5,1-7.7,1.4V179
			h-21.7v-75.8c-7.5,1.2-15.2,2.2-23,3.1l-4.1-22.6c5.5-0.4,10.8-0.7,15.9-1c3.1-4.4,6-8.6,8.7-12.6c-8.5-8.3-17.4-16.6-26.7-25
			l13.2-16.2c1,0.8,2.1,1.5,3.1,2.3C1033.3,20.8,1038.4,10.4,1042.8,0.1z M1064.9,79.2c-1-3.4-2.1-6.5-3.3-9.5
			c-2.2,3.6-4.4,7.2-6.6,10.6C1058.5,80,1061.8,79.6,1064.9,79.2z M1083,108.4c4.3,11.5,7.6,24.2,10.1,38.1l-21.1,7
			c-1.7-14.3-4.5-27.2-8.5-38.7L1083,108.4z M1102.4,29l19.9,6c-4,12.1-8.4,22.8-13.3,32.1c6.1,9.8,11.3,20.1,15.9,30.8l-21.7,7.7
			c-4.8-13.4-10.7-25.9-17.8-37.3C1091.9,56.1,1097.6,43,1102.4,29z M1094.7,108.4h90.5v21.1h-34v26.3h39.5v20.7h-103.1v-20.7h41
			v-26.3h-33.8V108.4z M1090.8,5.7h97.3v20.7h-97.3V5.7z M1137,29.7l20.3,7.7c-4.9,11.2-10.2,21.1-15.9,29.6
			c6.3,9,11.9,18.5,16.6,28.4l-20.3,10.8c-5.2-13.8-11.8-26.5-19.9-38.1C1125.3,56.4,1131.7,43.5,1137,29.7z M1169.7,30.5l20.1,7.7
			c-4.8,11-10,20.6-15.7,28.8c6.2,9.2,11.7,18.6,16.4,28.4l-20.3,10.8c-5.2-13.8-11.8-26.5-19.9-38.1
			C1157.8,56.6,1164.3,44,1169.7,30.5z"/>
		<path class="st0" d="M1217,9.4h61.3v21.9H1258v34h16.2V87H1258v42.7c7-1.5,13.5-3.2,19.5-5l2.3,21.1c-18.2,5.7-38,10.8-59.6,15.5
			l-4.1-23.2c6.7-1.2,13.2-2.4,19.5-3.7V87h-17.2V65.3h17.2v-34H1217V9.4z M1282.8,5H1389v102.1h-41.8v10.6h41v21.9h-41v14.7h48
			v21.5H1275v-21.5h49.5v-14.7H1282v-21.9h42.6v-10.6h-41.8V5z M1305.4,43.5h19.1v-17h-19.1V43.5z M1305.4,85.2h19.1V65.3h-19.1
			V85.2z M1347.2,26.4v17h19.1v-17H1347.2z M1347.2,65.3v19.9h19.1V65.3H1347.2z"/>
		<path class="st0" d="M1495.1,0.9h23.2V46c0,2.2,0,4.4,0,6.6c5.9,19.6,13,36.6,21.3,50.9c12,21.5,31.5,40.6,58.6,57.1l-20.3,19.3
			c-20.6-14.4-36.5-30-47.6-46.6c-7.7-11-14.5-24.2-20.3-39.7c-4.4,11.2-10.2,22-17.4,32.3c-15.9,21.9-35.8,39.9-60,54l-13.3-21.1
			c26.3-15.9,45.8-33.6,58.4-53.2c11.6-19.2,17.4-39.1,17.4-59.6V0.9z"/>
	</g>
	<g>
		<path class="st1" d="M323.1,540.9h-76.2l-23.5-65.1H107l-22.2,65.1H10l115-304.7h83.1L323.1,540.9z M210.9,421.8l-37.4-105.3
			c-1.9-3.7-3.7-9.2-5.5-16.6c-0.9-3.7-1.9-6.4-2.8-8.3c-0.9,1.9-1.9,5.1-2.8,9.7c-1.9,7.4-3.7,12.9-5.5,16.6l-34.6,103.9H210.9z"/>
		<path class="st1" d="M440.2,540.9h-69.3V236.2h69.3V540.9z"/>
		<path class="st1" d="M730.2,434.3h-49.9v106.7h-70.6V236.2h127.4c74.8,1.9,113.6,34.2,116.4,97
			C853.5,400.6,812.4,434.3,730.2,434.3z M724.7,288.8h-44.3v92.8h44.3c36-0.9,54.5-16.1,55.4-45.7
			C779.1,304.6,760.7,288.8,724.7,288.8z"/>
		<path class="st1" d="M1204.3,540.9h-65.1V359.5c0-27.7,0.5-50.3,1.4-67.9c-3.7,20.3-7.4,37.4-11.1,51.3l-56.8,198.1h-59.6
			l-55.4-203.6c-4.6-12.9-8.3-28.2-11.1-45.7h-1.4c0,4.6,0.5,11.6,1.4,20.8c0.9,28.6,1.4,49,1.4,60.9v167.6H883V236.2h102.5
			l54,199.5c1.8,9.2,2.8,20.3,2.8,33.2h1.4c0-2.8,0.5-6.4,1.4-11.1c0-11.1,0.9-18.5,2.8-22.2l54-199.5h102.5V540.9z"/>
	</g>
	<g>
		<path class="st0" d="M1275.1,241.1H1384v39.8h-32.8v77.5h26.8v39.5h-26.8V480c13.2-3.3,25.5-6.8,37-10.6l3.9,37
			c-34.5,11.7-72.5,22.6-113.8,32.4l-7.4-41.2c13.9-2.6,27.1-5.2,39.8-7.8v-92h-32.4v-39.5h32.4v-77.5h-35.6V241.1z M1390.7,286.2
			l35.2,8.8c-2.1,53.6-7.3,103.4-15.5,149.4l-33.8-16.9C1384.1,380.1,1388.8,333,1390.7,286.2z M1433.3,225.6h39.5v124.1
			c0,44.2-4.8,84.4-14.4,120.5c-8.7,33.1-20,60.3-33.8,81.4l-32.4-25.4c14.3-24.9,24.9-52.6,31.7-83.2c6.3-30.1,9.5-61.2,9.5-93.4
			V225.6z M1478.5,235.8h119.8v39.1H1556V357h38.1v39.5H1556v105.7h43.7v39.5h-139.6v-39.5h54.6V396.5h-33.5V357h33.5v-82.1h-36.3
			V235.8z"/>
	</g>
</g>
</svg>
