<?xml version="1.0" encoding="utf-8"?>
<!-- Generator: Adobe Illustrator 24.3.0, SVG Export Plug-In . SVG Version: 6.00 Build 0)  -->
<svg version="1.0" id="圖層_1" xmlns="http://www.w3.org/2000/svg" xmlns:xlink="http://www.w3.org/1999/xlink" x="0px" y="0px"
	 viewBox="0 0 1618.8 552.1" style="enable-background:new 0 0 1618.8 552.1;" xml:space="preserve">
<style type="text/css">
	.st0{fill:#FFFFFF;}
	.st1{fill:#BDA16C;}
</style>
<g>
	<path class="st0" d="M1022.6,111.2l19.9,4.8c-3,18.7-6.1,34.4-9.3,47.2l-19.9-6.2C1017.3,141.7,1020.4,126.4,1022.6,111.2z
		 M1045.8,2.1l19.9,8.5c-6.7,13.7-13.2,25.5-19.3,35.6c2.2,1.9,4.5,3.8,6.8,5.6c5.3-9.2,10-18.2,14.1-27.1l19.5,8.5
		c-6.7,12.5-13.3,24-19.7,34.4l15.7-5.2c5.4,12.3,9.6,25.7,12.6,40.2l-21.1,7c-0.4-3.1-0.9-6.3-1.5-9.5c-2.5,0.5-5,1-7.7,1.4V181
		h-21.7v-75.8c-7.5,1.2-15.2,2.2-23,3.1l-4.1-22.6c5.5-0.4,10.8-0.7,15.9-1c3.1-4.4,6-8.6,8.7-12.6c-8.5-8.3-17.4-16.6-26.7-25
		l13.2-16.2c1,0.8,2.1,1.5,3.1,2.3C1036.3,22.8,1041.4,12.4,1045.8,2.1z M1067.9,81.2c-1-3.4-2.1-6.5-3.3-9.5
		c-2.2,3.6-4.4,7.2-6.6,10.6C1061.5,82,1064.8,81.6,1067.9,81.2z M1086,110.4c4.3,11.5,7.6,24.2,10.1,38.1l-21.1,7
		c-1.7-14.3-4.5-27.2-8.5-38.7L1086,110.4z M1105.4,31l19.9,6c-4,12.1-8.4,22.8-13.3,32.1c6.1,9.8,11.3,20.1,15.9,30.8l-21.7,7.7
		c-4.8-13.4-10.7-25.9-17.8-37.3C1094.9,58.1,1100.6,45,1105.4,31z M1097.7,110.4h90.5v21.1h-34v26.3h39.5v20.7h-103.1v-20.7h41
		v-26.3h-33.8L1097.7,110.4L1097.7,110.4z M1093.8,7.7h97.3v20.7h-97.3V7.7z M1140,31.7l20.3,7.7c-4.9,11.2-10.2,21.1-15.9,29.6
		c6.3,9,11.9,18.5,16.6,28.4l-20.3,10.8c-5.2-13.8-11.8-26.5-19.9-38.1C1128.3,58.4,1134.7,45.5,1140,31.7z M1172.7,32.5l20.1,7.7
		c-4.8,11-10,20.6-15.7,28.8c6.2,9.2,11.7,18.6,16.4,28.4l-20.3,10.8c-5.2-13.8-11.8-26.5-19.9-38.1
		C1160.8,58.6,1167.3,46,1172.7,32.5z"/>
	<path class="st0" d="M1220,11.4h61.3v21.9H1261v34h16.2V89H1261v42.7c7-1.5,13.5-3.2,19.5-5l2.3,21.1c-18.2,5.7-38,10.8-59.6,15.5
		l-4.1-23.2c6.7-1.2,13.2-2.4,19.5-3.7V89h-17.2V67.3h17.2v-34H1220V11.4z M1285.8,7H1392v102.1h-41.8v10.6h41v21.9h-41v14.7h48
		v21.5H1278v-21.5h49.5v-14.7H1285v-21.9h42.6v-10.6h-41.8L1285.8,7L1285.8,7z M1308.4,45.5h19.1v-17h-19.1V45.5z M1308.4,87.2h19.1
		V67.3h-19.1V87.2z M1350.2,28.4v17h19.1v-17C1369.3,28.4,1350.2,28.4,1350.2,28.4z M1350.2,67.3v19.9h19.1V67.3H1350.2z"/>
	<path class="st0" d="M1498.1,2.9h23.2V48c0,2.2,0,4.4,0,6.6c5.9,19.6,13,36.6,21.3,50.9c12,21.5,31.5,40.6,58.6,57.1l-20.3,19.3
		c-20.6-14.4-36.5-30-47.6-46.6c-7.7-11-14.5-24.2-20.3-39.7c-4.4,11.2-10.2,22-17.4,32.3c-15.9,21.9-35.8,39.9-60,54l-13.3-21.1
		c26.3-15.9,45.8-33.6,58.4-53.2c11.6-19.2,17.4-39.1,17.4-59.6L1498.1,2.9L1498.1,2.9z"/>
</g>
<g>
	<path class="st1" d="M326.1,542.9h-76.2l-23.5-65.1H110l-22.2,65.1H13l115-304.7h83.1L326.1,542.9z M213.9,423.8l-37.4-105.3
		c-1.9-3.7-3.7-9.2-5.5-16.6c-0.9-3.7-1.9-6.4-2.8-8.3c-0.9,1.9-1.9,5.1-2.8,9.7c-1.9,7.4-3.7,12.9-5.5,16.6l-34.6,103.9
		L213.9,423.8L213.9,423.8z"/>
	<path class="st1" d="M443.2,542.9h-69.3V238.2h69.3V542.9z"/>
	<path class="st1" d="M733.2,436.3h-49.9V543h-70.6V238.2h127.4c74.8,1.9,113.6,34.2,116.4,97C856.5,402.6,815.4,436.3,733.2,436.3z
		 M727.7,290.8h-44.3v92.8h44.3c36-0.9,54.5-16.1,55.4-45.7C782.1,306.6,763.7,290.8,727.7,290.8z"/>
	<path class="st1" d="M1207.3,542.9h-65.1V361.5c0-27.7,0.5-50.3,1.4-67.9c-3.7,20.3-7.4,37.4-11.1,51.3L1075.7,543h-59.6
		l-55.4-203.6c-4.6-12.9-8.3-28.2-11.1-45.7h-1.4c0,4.6,0.5,11.6,1.4,20.8c0.9,28.6,1.4,49,1.4,60.9V543h-65V238.2h102.5l54,199.5
		c1.8,9.2,2.8,20.3,2.8,33.2h1.4c0-2.8,0.5-6.4,1.4-11.1c0-11.1,0.9-18.5,2.8-22.2l54-199.5h102.5v304.8H1207.3z"/>
</g>
<g>
	<path class="st0" d="M1278.1,243.1H1387v39.8h-32.8v77.5h26.8v39.5h-26.8V482c13.2-3.3,25.5-6.8,37-10.6l3.9,37
		c-34.5,11.7-72.5,22.6-113.8,32.4l-7.4-41.2c13.9-2.6,27.1-5.2,39.8-7.8v-92h-32.4v-39.5h32.4v-77.5h-35.6V243.1z M1393.7,288.2
		l35.2,8.8c-2.1,53.6-7.3,103.4-15.5,149.4l-33.8-16.9C1387.1,382.1,1391.8,335,1393.7,288.2z M1436.3,227.6h39.5v124.1
		c0,44.2-4.8,84.4-14.4,120.5c-8.7,33.1-20,60.3-33.8,81.4l-32.4-25.4c14.3-24.9,24.9-52.6,31.7-83.2c6.3-30.1,9.5-61.2,9.5-93.4
		L1436.3,227.6L1436.3,227.6z M1481.5,237.8h119.8v39.1H1559V359h38.1v39.5H1559v105.7h43.7v39.5h-139.6v-39.5h54.6V398.5h-33.5V359
		h33.5v-82.1h-36.3v-39.1H1481.5z"/>
</g>
</svg>
